<svg class="rich-terminal" viewBox="0 0 994 635.5999999999999" xmlns="http://www.w3.org/2000/svg">
    <!-- Generated with Rich https://www.textualize.io -->
    <style>

    @font-face {
        font-family: "Fira Code";
        src: local("FiraCode-Regular"),
                url("https://cdnjs.cloudflare.com/ajax/libs/firacode/6.2.0/woff2/FiraCode-Regular.woff2") format("woff2"),
                url("https://cdnjs.cloudflare.com/ajax/libs/firacode/6.2.0/woff/FiraCode-Regular.woff") format("woff");
        font-style: normal;
        font-weight: 400;
    }
    @font-face {
        font-family: "Fira Code";
        src: local("FiraCode-Bold"),
                url("https://cdnjs.cloudflare.com/ajax/libs/firacode/6.2.0/woff2/FiraCode-Bold.woff2") format("woff2"),
                url("https://cdnjs.cloudflare.com/ajax/libs/firacode/6.2.0/woff/FiraCode-Bold.woff") format("woff");
        font-style: bold;
        font-weight: 700;
    }

    .terminal-matrix {
        font-family: Fira Code, monospace;
        font-size: 20px;
        line-height: 24.4px;
        font-variant-east-asian: full-width;
    }

    .terminal-title {
        font-size: 18px;
        font-weight: bold;
        font-family: arial;
    }

    .terminal-r1 { fill: #c5c8c6 }
.terminal-r2 { fill: #343434 }
.terminal-r3 { fill: #b5b5b5;font-weight: bold }
.terminal-r4 { fill: #dedede;font-weight: bold }
.terminal-r5 { fill: #dedede }
.terminal-r6 { fill: #6e6e6e }
.terminal-r7 { fill: #efefef }
.terminal-r8 { fill: #424242 }
.terminal-r9 { fill: #b9b9b9;font-weight: bold }
.terminal-r10 { fill: #989898 }
    </style>

    <defs>
    <clipPath id="terminal-clip-terminal">
      <rect x="0" y="0" width="975.0" height="584.5999999999999" />
    </clipPath>
    <clipPath id="terminal-line-0">
    <rect x="0" y="1.5" width="976" height="24.65"/>
            </clipPath>
<clipPath id="terminal-line-1">
    <rect x="0" y="25.9" width="976" height="24.65"/>
            </clipPath>
<clipPath id="terminal-line-2">
    <rect x="0" y="50.3" width="976" height="24.65"/>
            </clipPath>
<clipPath id="terminal-line-3">
    <rect x="0" y="74.7" width="976" height="24.65"/>
            </clipPath>
<clipPath id="terminal-line-4">
    <rect x="0" y="99.1" width="976" height="24.65"/>
            </clipPath>
<clipPath id="terminal-line-5">
    <rect x="0" y="123.5" width="976" height="24.65"/>
            </clipPath>
<clipPath id="terminal-line-6">
    <rect x="0" y="147.9" width="976" height="24.65"/>
            </clipPath>
<clipPath id="terminal-line-7">
    <rect x="0" y="172.3" width="976" height="24.65"/>
            </clipPath>
<clipPath id="terminal-line-8">
    <rect x="0" y="196.7" width="976" height="24.65"/>
            </clipPath>
<clipPath id="terminal-line-9">
    <rect x="0" y="221.1" width="976" height="24.65"/>
            </clipPath>
<clipPath id="terminal-line-10">
    <rect x="0" y="245.5" width="976" height="24.65"/>
            </clipPath>
<clipPath id="terminal-line-11">
    <rect x="0" y="269.9" width="976" height="24.65"/>
            </clipPath>
<clipPath id="terminal-line-12">
    <rect x="0" y="294.3" width="976" height="24.65"/>
            </clipPath>
<clipPath id="terminal-line-13">
    <rect x="0" y="318.7" width="976" height="24.65"/>
            </clipPath>
<clipPath id="terminal-line-14">
    <rect x="0" y="343.1" width="976" height="24.65"/>
            </clipPath>
<clipPath id="terminal-line-15">
    <rect x="0" y="367.5" width="976" height="24.65"/>
            </clipPath>
<clipPath id="terminal-line-16">
    <rect x="0" y="391.9" width="976" height="24.65"/>
            </clipPath>
<clipPath id="terminal-line-17">
    <rect x="0" y="416.3" width="976" height="24.65"/>
            </clipPath>
<clipPath id="terminal-line-18">
    <rect x="0" y="440.7" width="976" height="24.65"/>
            </clipPath>
<clipPath id="terminal-line-19">
    <rect x="0" y="465.1" width="976" height="24.65"/>
            </clipPath>
<clipPath id="terminal-line-20">
    <rect x="0" y="489.5" width="976" height="24.65"/>
            </clipPath>
<clipPath id="terminal-line-21">
    <rect x="0" y="513.9" width="976" height="24.65"/>
            </clipPath>
<clipPath id="terminal-line-22">
    <rect x="0" y="538.3" width="976" height="24.65"/>
            </clipPath>
    </defs>

    <rect fill="#292929" stroke="rgba(255,255,255,0.35)" stroke-width="1" x="1" y="1" width="992" height="633.6" rx="8"/><text class="terminal-title" fill="#c5c8c6" text-anchor="middle" x="496" y="27">Kairos</text>
            <g transform="translate(26,22)">
            <circle cx="0" cy="0" r="7" fill="#ff5f57"/>
            <circle cx="22" cy="0" r="7" fill="#febc2e"/>
            <circle cx="44" cy="0" r="7" fill="#28c840"/>
            </g>
        
    <g transform="translate(9, 41)" clip-path="url(#terminal-clip-terminal)">
    <rect fill="#343434" x="0" y="1.5" width="951.6" height="24.65" shape-rendering="crispEdges"/><rect fill="#555555" x="951.6" y="1.5" width="24.4" height="24.65" shape-rendering="crispEdges"/><rect fill="#343434" x="0" y="25.9" width="36.6" height="24.65" shape-rendering="crispEdges"/><rect fill="#343434" x="36.6" y="25.9" width="73.2" height="24.65" shape-rendering="crispEdges"/><rect fill="#343434" x="109.8" y="25.9" width="61" height="24.65" shape-rendering="crispEdges"/><rect fill="#343434" x="170.8" y="25.9" width="170.8" height="24.65" shape-rendering="crispEdges"/><rect fill="#343434" x="341.6" y="25.9" width="500.2" height="24.65" shape-rendering="crispEdges"/><rect fill="#343434" x="841.8" y="25.9" width="12.2" height="24.65" shape-rendering="crispEdges"/><rect fill="#343434" x="854" y="25.9" width="12.2" height="24.65" shape-rendering="crispEdges"/><rect fill="#343434" x="866.2" y="25.9" width="48.8" height="24.65" shape-rendering="crispEdges"/><rect fill="#343434" x="915" y="25.9" width="36.6" height="24.65" shape-rendering="crispEdges"/><rect fill="#555555" x="951.6" y="25.9" width="24.4" height="24.65" shape-rendering="crispEdges"/><rect fill="#343434" x="0" y="50.3" width="36.6" height="24.65" shape-rendering="crispEdges"/><rect fill="#343434" x="36.6" y="50.3" width="878.4" height="24.65" shape-rendering="crispEdges"/><rect fill="#343434" x="915" y="50.3" width="36.6" height="24.65" shape-rendering="crispEdges"/><rect fill="#555555" x="951.6" y="50.3" width="24.4" height="24.65" shape-rendering="crispEdges"/><rect fill="#343434" x="0" y="74.7" width="951.6" height="24.65" shape-rendering="crispEdges"/><rect fill="#555555" x="951.6" y="74.7" width="24.4" height="24.65" shape-rendering="crispEdges"/><rect fill="#343434" x="0" y="99.1" width="36.6" height="24.65" shape-rendering="crispEdges"/><rect fill="#343434" x="36.6" y="99.1" width="854" height="24.65" shape-rendering="crispEdges"/><rect fill="#343434" x="890.6" y="99.1" width="61" height="24.65" shape-rendering="crispEdges"/><rect fill="#555555" x="951.6" y="99.1" width="24.4" height="24.65" shape-rendering="crispEdges"/><rect fill="#343434" x="0" y="123.5" width="36.6" height="24.65" shape-rendering="crispEdges"/><rect fill="#343434" x="36.6" y="123.5" width="854" height="24.65" shape-rendering="crispEdges"/><rect fill="#343434" x="890.6" y="123.5" width="61" height="24.65" shape-rendering="crispEdges"/><rect fill="#555555" x="951.6" y="123.5" width="24.4" height="24.65" shape-rendering="crispEdges"/><rect fill="#343434" x="0" y="147.9" width="36.6" height="24.65" shape-rendering="crispEdges"/><rect fill="#343434" x="36.6" y="147.9" width="854" height="24.65" shape-rendering="crispEdges"/><rect fill="#343434" x="890.6" y="147.9" width="61" height="24.65" shape-rendering="crispEdges"/><rect fill="#555555" x="951.6" y="147.9" width="24.4" height="24.65" shape-rendering="crispEdges"/><rect fill="#343434" x="0" y="172.3" width="36.6" height="24.65" shape-rendering="crispEdges"/><rect fill="#343434" x="36.6" y="172.3" width="854" height="24.65" shape-rendering="crispEdges"/><rect fill="#343434" x="890.6" y="172.3" width="61" height="24.65" shape-rendering="crispEdges"/><rect fill="#555555" x="951.6" y="172.3" width="24.4" height="24.65" shape-rendering="crispEdges"/><rect fill="#343434" x="0" y="196.7" width="36.6" height="24.65" shape-rendering="crispEdges"/><rect fill="#343434" x="36.6" y="196.7" width="854" height="24.65" shape-rendering="crispEdges"/><rect fill="#343434" x="890.6" y="196.7" width="61" height="24.65" shape-rendering="crispEdges"/><rect fill="#555555" x="951.6" y="196.7" width="24.4" height="24.65" shape-rendering="crispEdges"/><rect fill="#424242" x="0" y="221.1" width="939.4" height="24.65" shape-rendering="crispEdges"/><rect fill="#555555" x="939.4" y="221.1" width="12.2" height="24.65" shape-rendering="crispEdges"/><rect fill="#555555" x="951.6" y="221.1" width="24.4" height="24.65" shape-rendering="crispEdges"/><rect fill="#424242" x="0" y="245.5" width="24.4" height="24.65" shape-rendering="crispEdges"/><rect fill="#424242" x="24.4" y="245.5" width="280.6" height="24.65" shape-rendering="crispEdges"/><rect fill="#424242" x="305" y="245.5" width="634.4" height="24.65" shape-rendering="crispEdges"/><rect fill="#555555" x="939.4" y="245.5" width="12.2" height="24.65" shape-rendering="crispEdges"/><rect fill="#555555" x="951.6" y="245.5" width="24.4" height="24.65" shape-rendering="crispEdges"/><rect fill="#424242" x="0" y="269.9" width="24.4" height="24.65" shape-rendering="crispEdges"/><rect fill="#424242" x="24.4" y="269.9" width="280.6" height="24.65" shape-rendering="crispEdges"/><rect fill="#424242" x="305" y="269.9" width="634.4" height="24.65" shape-rendering="crispEdges"/><rect fill="#555555" x="939.4" y="269.9" width="12.2" height="24.65" shape-rendering="crispEdges"/><rect fill="#343434" x="951.6" y="269.9" width="24.4" height="24.65" shape-rendering="crispEdges"/><rect fill="#424242" x="0" y="294.3" width="24.4" height="24.65" shape-rendering="crispEdges"/><rect fill="#424242" x="24.4" y="294.3" width="280.6" height="24.65" shape-rendering="crispEdges"/><rect fill="#424242" x="305" y="294.3" width="634.4" height="24.65" shape-rendering="crispEdges"/><rect fill="#343434" x="939.4" y="294.3" width="36.6" height="24.65" shape-rendering="crispEdges"/><rect fill="#424242" x="0" y="318.7" width="24.4" height="24.65" shape-rendering="crispEdges"/><rect fill="#424242" x="24.4" y="318.7" width="280.6" height="24.65" shape-rendering="crispEdges"/><rect fill="#424242" x="305" y="318.7" width="634.4" height="24.65" shape-rendering="crispEdges"/><rect fill="#343434" x="939.4" y="318.7" width="36.6" height="24.65" shape-rendering="crispEdges"/><rect fill="#424242" x="0" y="343.1" width="24.4" height="24.65" shape-rendering="crispEdges"/><rect fill="#424242" x="24.4" y="343.1" width="280.6" height="24.65" shape-rendering="crispEdges"/><rect fill="#424242" x="305" y="343.1" width="634.4" height="24.65" shape-rendering="crispEdges"/><rect fill="#343434" x="939.4" y="343.1" width="36.6" height="24.65" shape-rendering="crispEdges"/><rect fill="#424242" x="0" y="367.5" width="24.4" height="24.65" shape-rendering="crispEdges"/><rect fill="#424242" x="24.4" y="367.5" width="280.6" height="24.65" shape-rendering="crispEdges"/><rect fill="#424242" x="305" y="367.5" width="634.4" height="24.65" shape-rendering="crispEdges"/><rect fill="#343434" x="939.4" y="367.5" width="36.6" height="24.65" shape-rendering="crispEdges"/><rect fill="#424242" x="0" y="391.9" width="24.4" height="24.65" shape-rendering="crispEdges"/><rect fill="#424242" x="24.4" y="391.9" width="280.6" height="24.65" shape-rendering="crispEdges"/><rect fill="#424242" x="305" y="391.9" width="634.4" height="24.65" shape-rendering="crispEdges"/><rect fill="#343434" x="939.4" y="391.9" width="36.6" height="24.65" shape-rendering="crispEdges"/><rect fill="#424242" x="0" y="416.3" width="24.4" height="24.65" shape-rendering="crispEdges"/><rect fill="#424242" x="24.4" y="416.3" width="280.6" height="24.65" shape-rendering="crispEdges"/><rect fill="#424242" x="305" y="416.3" width="634.4" height="24.65" shape-rendering="crispEdges"/><rect fill="#343434" x="939.4" y="416.3" width="36.6" height="24.65" shape-rendering="crispEdges"/><rect fill="#424242" x="0" y="440.7" width="951.6" height="24.65" shape-rendering="crispEdges"/><rect fill="#343434" x="951.6" y="440.7" width="24.4" height="24.65" shape-rendering="crispEdges"/><rect fill="#424242" x="0" y="465.1" width="36.6" height="24.65" shape-rendering="crispEdges"/><rect fill="#424242" x="36.6" y="465.1" width="207.4" height="24.65" shape-rendering="crispEdges"/><rect fill="#424242" x="244" y="465.1" width="707.6" height="24.65" shape-rendering="crispEdges"/><rect fill="#343434" x="951.6" y="465.1" width="24.4" height="24.65" shape-rendering="crispEdges"/><rect fill="#424242" x="0" y="489.5" width="36.6" height="24.65" shape-rendering="crispEdges"/><rect fill="#424242" x="36.6" y="489.5" width="207.4" height="24.65" shape-rendering="crispEdges"/><rect fill="#424242" x="244" y="489.5" width="36.6" height="24.65" shape-rendering="crispEdges"/><rect fill="#5a5a5a" x="280.6" y="489.5" width="12.2" height="24.65" shape-rendering="crispEdges"/><rect fill="#efefef" x="292.8" y="489.5" width="24.4" height="24.65" shape-rendering="crispEdges"/><rect fill="#5a5a5a" x="317.2" y="489.5" width="292.8" height="24.65" shape-rendering="crispEdges"/><rect fill="#5a5a5a" x="610" y="489.5" width="305" height="24.65" shape-rendering="crispEdges"/><rect fill="#5a5a5a" x="915" y="489.5" width="12.2" height="24.65" shape-rendering="crispEdges"/><rect fill="#424242" x="927.2" y="489.5" width="24.4" height="24.65" shape-rendering="crispEdges"/><rect fill="#343434" x="951.6" y="489.5" width="24.4" height="24.65" shape-rendering="crispEdges"/><rect fill="#424242" x="0" y="513.9" width="36.6" height="24.65" shape-rendering="crispEdges"/><rect fill="#424242" x="36.6" y="513.9" width="207.4" height="24.65" shape-rendering="crispEdges"/><rect fill="#424242" x="244" y="513.9" width="707.6" height="24.65" shape-rendering="crispEdges"/><rect fill="#343434" x="951.6" y="513.9" width="24.4" height="24.65" shape-rendering="crispEdges"/><rect fill="#424242" x="0" y="538.3" width="951.6" height="24.65" shape-rendering="crispEdges"/><rect fill="#343434" x="951.6" y="538.3" width="24.4" height="24.65" shape-rendering="crispEdges"/><rect fill="#424242" x="0" y="562.7" width="951.6" height="24.65" shape-rendering="crispEdges"/><rect fill="#343434" x="951.6" y="562.7" width="24.4" height="24.65" shape-rendering="crispEdges"/>
    <g class="terminal-matrix">
    <text class="terminal-r1" x="976" y="20" textLength="12.2" clip-path="url(#terminal-line-0)">
</text><text class="terminal-r3" x="36.6" y="44.4" textLength="73.2" clip-path="url(#terminal-line-1)">KAIROS</text><text class="terminal-r4" x="109.8" y="44.4" textLength="61" clip-path="url(#terminal-line-1)">&#160;&#160;·&#160;&#160;</text><text class="terminal-r3" x="170.8" y="44.4" textLength="170.8" clip-path="url(#terminal-line-1)">visual-fixture</text><text class="terminal-r5" x="841.8" y="44.4" textLength="12.2" clip-path="url(#terminal-line-1)">•</text><text class="terminal-r5" x="866.2" y="44.4" textLength="24.4" clip-path="url(#terminal-line-1)">帮助</text><text class="terminal-r1" x="976" y="44.4" textLength="12.2" clip-path="url(#terminal-line-1)">
</text><text class="terminal-r6" x="36.6" y="68.8" textLength="878.4" clip-path="url(#terminal-line-2)">━━━━━━━━━━━━━━━━━━━━━━━━━━━━━━━━━━━━━━━━━━━━━━━━━━━━━━━━━━━━━━━━━━━━━━━━</text><text class="terminal-r1" x="976" y="68.8" textLength="12.2" clip-path="url(#terminal-line-2)">
</text><text class="terminal-r1" x="976" y="93.2" textLength="12.2" clip-path="url(#terminal-line-3)">
</text><text class="terminal-r1" x="976" y="117.6" textLength="12.2" clip-path="url(#terminal-line-4)">
</text><text class="terminal-r1" x="976" y="142" textLength="12.2" clip-path="url(#terminal-line-5)">
</text><text class="terminal-r1" x="976" y="166.4" textLength="12.2" clip-path="url(#terminal-line-6)">
</text><text class="terminal-r1" x="976" y="190.8" textLength="12.2" clip-path="url(#terminal-line-7)">
</text><text class="terminal-r1" x="976" y="215.2" textLength="12.2" clip-path="url(#terminal-line-8)">
</text><text class="terminal-r7" x="0" y="239.6" textLength="915" clip-path="url(#terminal-line-9)">╭──────────────────────────&#160;visual-fixture&#160;·&#160;帮助&#160;──────────────────────────╮</text><text class="terminal-r1" x="976" y="239.6" textLength="12.2" clip-path="url(#terminal-line-9)">
</text><text class="terminal-r7" x="0" y="264" textLength="24.4" clip-path="url(#terminal-line-10)">│&#160;</text><text class="terminal-r9" x="24.4" y="264" textLength="219.6" clip-path="url(#terminal-line-10)">编号&#160;/&#160;动作名&#160;&#160;&#160;&#160;&#160;&#160;&#160;&#160;&#160;&#160;</text><text class="terminal-r7" x="305" y="264" textLength="500.2" clip-path="url(#terminal-line-10)">执行当前上方列出的操作&#160;&#160;&#160;&#160;&#160;&#160;&#160;&#160;&#160;&#160;&#160;&#160;&#160;&#160;&#160;&#160;&#160;&#160;&#160;&#160;&#160;&#160;&#160;&#160;&#160;&#160;&#160;&#160;&#160;│</text><text class="terminal-r2" x="951.6" y="264" textLength="24.4" clip-path="url(#terminal-line-10)">▂▂</text><text class="terminal-r1" x="976" y="264" textLength="12.2" clip-path="url(#terminal-line-10)">
</text><text class="terminal-r7" x="0" y="288.4" textLength="24.4" clip-path="url(#terminal-line-11)">│&#160;</text><text class="terminal-r9" x="24.4" y="288.4" textLength="231.8" clip-path="url(#terminal-line-11)">其他文本&#160;&#160;&#160;&#160;&#160;&#160;&#160;&#160;&#160;&#160;&#160;&#160;&#160;&#160;&#160;</text><text class="terminal-r7" x="305" y="288.4" textLength="512.4" clip-path="url(#terminal-line-11)">作为&#160;kairos&#160;&lt;输入&gt;&#160;交给所属&#160;Application&#160;执行&#160;&#160;&#160;&#160;&#160;&#160;&#160;│</text><text class="terminal-r2" x="939.4" y="288.4" textLength="12.2" clip-path="url(#terminal-line-11)">▇</text><text class="terminal-r1" x="976" y="288.4" textLength="12.2" clip-path="url(#terminal-line-11)">
</text><text class="terminal-r7" x="0" y="312.8" textLength="24.4" clip-path="url(#terminal-line-12)">│&#160;</text><text class="terminal-r9" x="24.4" y="312.8" textLength="280.6" clip-path="url(#terminal-line-12)">/b,&#160;/back&#160;&#160;&#160;&#160;&#160;&#160;&#160;&#160;&#160;&#160;&#160;&#160;&#160;&#160;</text><text class="terminal-r7" x="305" y="312.8" textLength="366" clip-path="url(#terminal-line-12)">单一目标直接返回；多个目标时在交互区选择层级&#160;&#160;&#160;&#160;&#160;&#160;&#160;│</text><text class="terminal-r1" x="976" y="312.8" textLength="12.2" clip-path="url(#terminal-line-12)">
</text><text class="terminal-r7" x="0" y="337.2" textLength="24.4" clip-path="url(#terminal-line-13)">│&#160;</text><text class="terminal-r9" x="24.4" y="337.2" textLength="280.6" clip-path="url(#terminal-line-13)">/home&#160;&#160;&#160;&#160;&#160;&#160;&#160;&#160;&#160;&#160;&#160;&#160;&#160;&#160;&#160;&#160;&#160;&#160;</text><text class="terminal-r7" x="305" y="337.2" textLength="585.6" clip-path="url(#terminal-line-13)">返回首页&#160;&#160;&#160;&#160;&#160;&#160;&#160;&#160;&#160;&#160;&#160;&#160;&#160;&#160;&#160;&#160;&#160;&#160;&#160;&#160;&#160;&#160;&#160;&#160;&#160;&#160;&#160;&#160;&#160;&#160;&#160;&#160;&#160;&#160;&#160;&#160;&#160;&#160;&#160;&#160;&#160;&#160;&#160;│</text><text class="terminal-r1" x="976" y="337.2" textLength="12.2" clip-path="url(#terminal-line-13)">
</text><text class="terminal-r7" x="0" y="361.6" textLength="24.4" clip-path="url(#terminal-line-14)">│&#160;</text><text class="terminal-r9" x="24.4" y="361.6" textLength="280.6" clip-path="url(#terminal-line-14)">p&#160;/project&#160;&#160;&#160;&#160;&#160;&#160;&#160;&#160;&#160;&#160;&#160;&#160;&#160;</text><text class="terminal-r7" x="305" y="361.6" textLength="536.8" clip-path="url(#terminal-line-14)">进入全局项目管理&#160;&#160;&#160;&#160;&#160;&#160;&#160;&#160;&#160;&#160;&#160;&#160;&#160;&#160;&#160;&#160;&#160;&#160;&#160;&#160;&#160;&#160;&#160;&#160;&#160;&#160;&#160;&#160;&#160;&#160;&#160;&#160;&#160;&#160;&#160;│</text><text class="terminal-r1" x="976" y="361.6" textLength="12.2" clip-path="url(#terminal-line-14)">
</text><text class="terminal-r7" x="0" y="386" textLength="24.4" clip-path="url(#terminal-line-15)">│&#160;</text><text class="terminal-r9" x="24.4" y="386" textLength="280.6" clip-path="url(#terminal-line-15)">/exit&#160;&#160;&#160;&#160;&#160;&#160;&#160;&#160;&#160;&#160;&#160;&#160;&#160;&#160;&#160;&#160;&#160;&#160;</text><text class="terminal-r7" x="305" y="386" textLength="610" clip-path="url(#terminal-line-15)">退出&#160;Kairos&#160;Workbench&#160;&#160;&#160;&#160;&#160;&#160;&#160;&#160;&#160;&#160;&#160;&#160;&#160;&#160;&#160;&#160;&#160;&#160;&#160;&#160;&#160;&#160;&#160;&#160;&#160;&#160;&#160;&#160;&#160;&#160;│</text><text class="terminal-r1" x="976" y="386" textLength="12.2" clip-path="url(#terminal-line-15)">
</text><text class="terminal-r7" x="0" y="410.4" textLength="24.4" clip-path="url(#terminal-line-16)">│&#160;</text><text class="terminal-r9" x="24.4" y="410.4" textLength="280.6" clip-path="url(#terminal-line-16)">/observe&#160;&#160;&#160;&#160;&#160;&#160;&#160;&#160;&#160;&#160;&#160;&#160;&#160;&#160;&#160;</text><text class="terminal-r7" x="305" y="410.4" textLength="500.2" clip-path="url(#terminal-line-16)">打开当前项目的运行中心&#160;&#160;&#160;&#160;&#160;&#160;&#160;&#160;&#160;&#160;&#160;&#160;&#160;&#160;&#160;&#160;&#160;&#160;&#160;&#160;&#160;&#160;&#160;&#160;&#160;&#160;&#160;&#160;&#160;│</text><text class="terminal-r1" x="976" y="410.4" textLength="12.2" clip-path="url(#terminal-line-16)">
</text><text class="terminal-r7" x="0" y="434.8" textLength="24.4" clip-path="url(#terminal-line-17)">│&#160;</text><text class="terminal-r9" x="24.4" y="434.8" textLength="256.2" clip-path="url(#terminal-line-17)">/market&#160;[代码]&#160;&#160;&#160;&#160;&#160;&#160;&#160;&#160;&#160;</text><text class="terminal-r7" x="305" y="434.8" textLength="414.8" clip-path="url(#terminal-line-17)">搜索有效市场标的；省略代码时进入引导&#160;&#160;&#160;&#160;&#160;&#160;&#160;&#160;&#160;&#160;&#160;&#160;&#160;&#160;&#160;│</text><text class="terminal-r1" x="976" y="434.8" textLength="12.2" clip-path="url(#terminal-line-17)">
</text><text class="terminal-r8" x="0" y="459.2" textLength="951.6" clip-path="url(#terminal-line-18)">──────────────────────────────────────────────────────────────────────────────</text><text class="terminal-r1" x="976" y="459.2" textLength="12.2" clip-path="url(#terminal-line-18)">
</text><text class="terminal-r1" x="976" y="483.6" textLength="12.2" clip-path="url(#terminal-line-19)">
</text><text class="terminal-r3" x="36.6" y="508" textLength="207.4" clip-path="url(#terminal-line-20)">visual-fixture&#160;&#160;›</text><text class="terminal-r2" x="292.8" y="508" textLength="12.2" clip-path="url(#terminal-line-20)">输</text><text class="terminal-r10" x="317.2" y="508" textLength="183" clip-path="url(#terminal-line-20)">入编号或命令；Enter&#160;提交</text><text class="terminal-r1" x="976" y="508" textLength="12.2" clip-path="url(#terminal-line-20)">
</text><text class="terminal-r1" x="976" y="532.4" textLength="12.2" clip-path="url(#terminal-line-21)">
</text><text class="terminal-r1" x="976" y="556.8" textLength="12.2" clip-path="url(#terminal-line-22)">
</text>
    </g>
    </g>
</svg>
