<svg class="rich-terminal" viewBox="0 0 1238 782.0" xmlns="http://www.w3.org/2000/svg">
    <!-- Generated with Rich https://www.textualize.io -->
    <style>

    @font-face {
        font-family: "Fira Code";
        src: local("FiraCode-Regular"),
                url("https://cdnjs.cloudflare.com/ajax/libs/firacode/6.2.0/woff2/FiraCode-Regular.woff2") format("woff2"),
                url("https://cdnjs.cloudflare.com/ajax/libs/firacode/6.2.0/woff/FiraCode-Regular.woff") format("woff");
        font-style: normal;
        font-weight: 400;
    }
    @font-face {
        font-family: "Fira Code";
        src: local("FiraCode-Bold"),
                url("https://cdnjs.cloudflare.com/ajax/libs/firacode/6.2.0/woff2/FiraCode-Bold.woff2") format("woff2"),
                url("https://cdnjs.cloudflare.com/ajax/libs/firacode/6.2.0/woff/FiraCode-Bold.woff") format("woff");
        font-style: bold;
        font-weight: 700;
    }

    .terminal-matrix {
        font-family: Fira Code, monospace;
        font-size: 20px;
        line-height: 24.4px;
        font-variant-east-asian: full-width;
    }

    .terminal-title {
        font-size: 18px;
        font-weight: bold;
        font-family: arial;
    }

    .terminal-r1 { fill: #c5c8c6 }
.terminal-r2 { fill: #b9b9b9;font-weight: bold }
.terminal-r3 { fill: #e0e0e0 }
.terminal-r4 { fill: #939393 }
.terminal-r5 { fill: #e0e0e0;font-weight: bold }
.terminal-r6 { fill: #7c7c7c;font-weight: bold }
.terminal-r7 { fill: #b9b9b9 }
.terminal-r8 { fill: #2a2a2a }
.terminal-r9 { fill: #9e9e9e }
.terminal-r10 { fill: #999999 }
.terminal-r11 { fill: #656565 }
.terminal-r12 { fill: #b0b0b0;font-weight: bold }
.terminal-r13 { fill: #121212 }
.terminal-r14 { fill: #797979 }
    </style>

    <defs>
    <clipPath id="terminal-clip-terminal">
      <rect x="0" y="0" width="1219.0" height="731.0" />
    </clipPath>
    <clipPath id="terminal-line-0">
    <rect x="0" y="1.5" width="1220" height="24.65"/>
            </clipPath>
<clipPath id="terminal-line-1">
    <rect x="0" y="25.9" width="1220" height="24.65"/>
            </clipPath>
<clipPath id="terminal-line-2">
    <rect x="0" y="50.3" width="1220" height="24.65"/>
            </clipPath>
<clipPath id="terminal-line-3">
    <rect x="0" y="74.7" width="1220" height="24.65"/>
            </clipPath>
<clipPath id="terminal-line-4">
    <rect x="0" y="99.1" width="1220" height="24.65"/>
            </clipPath>
<clipPath id="terminal-line-5">
    <rect x="0" y="123.5" width="1220" height="24.65"/>
            </clipPath>
<clipPath id="terminal-line-6">
    <rect x="0" y="147.9" width="1220" height="24.65"/>
            </clipPath>
<clipPath id="terminal-line-7">
    <rect x="0" y="172.3" width="1220" height="24.65"/>
            </clipPath>
<clipPath id="terminal-line-8">
    <rect x="0" y="196.7" width="1220" height="24.65"/>
            </clipPath>
<clipPath id="terminal-line-9">
    <rect x="0" y="221.1" width="1220" height="24.65"/>
            </clipPath>
<clipPath id="terminal-line-10">
    <rect x="0" y="245.5" width="1220" height="24.65"/>
            </clipPath>
<clipPath id="terminal-line-11">
    <rect x="0" y="269.9" width="1220" height="24.65"/>
            </clipPath>
<clipPath id="terminal-line-12">
    <rect x="0" y="294.3" width="1220" height="24.65"/>
            </clipPath>
<clipPath id="terminal-line-13">
    <rect x="0" y="318.7" width="1220" height="24.65"/>
            </clipPath>
<clipPath id="terminal-line-14">
    <rect x="0" y="343.1" width="1220" height="24.65"/>
            </clipPath>
<clipPath id="terminal-line-15">
    <rect x="0" y="367.5" width="1220" height="24.65"/>
            </clipPath>
<clipPath id="terminal-line-16">
    <rect x="0" y="391.9" width="1220" height="24.65"/>
            </clipPath>
<clipPath id="terminal-line-17">
    <rect x="0" y="416.3" width="1220" height="24.65"/>
            </clipPath>
<clipPath id="terminal-line-18">
    <rect x="0" y="440.7" width="1220" height="24.65"/>
            </clipPath>
<clipPath id="terminal-line-19">
    <rect x="0" y="465.1" width="1220" height="24.65"/>
            </clipPath>
<clipPath id="terminal-line-20">
    <rect x="0" y="489.5" width="1220" height="24.65"/>
            </clipPath>
<clipPath id="terminal-line-21">
    <rect x="0" y="513.9" width="1220" height="24.65"/>
            </clipPath>
<clipPath id="terminal-line-22">
    <rect x="0" y="538.3" width="1220" height="24.65"/>
            </clipPath>
<clipPath id="terminal-line-23">
    <rect x="0" y="562.7" width="1220" height="24.65"/>
            </clipPath>
<clipPath id="terminal-line-24">
    <rect x="0" y="587.1" width="1220" height="24.65"/>
            </clipPath>
<clipPath id="terminal-line-25">
    <rect x="0" y="611.5" width="1220" height="24.65"/>
            </clipPath>
<clipPath id="terminal-line-26">
    <rect x="0" y="635.9" width="1220" height="24.65"/>
            </clipPath>
<clipPath id="terminal-line-27">
    <rect x="0" y="660.3" width="1220" height="24.65"/>
            </clipPath>
<clipPath id="terminal-line-28">
    <rect x="0" y="684.7" width="1220" height="24.65"/>
            </clipPath>
    </defs>

    <rect fill="#292929" stroke="rgba(255,255,255,0.35)" stroke-width="1" x="1" y="1" width="1236" height="780" rx="8"/><text class="terminal-title" fill="#c5c8c6" text-anchor="middle" x="618" y="27">Kairos</text>
            <g transform="translate(26,22)">
            <circle cx="0" cy="0" r="7" fill="#ff5f57"/>
            <circle cx="22" cy="0" r="7" fill="#febc2e"/>
            <circle cx="44" cy="0" r="7" fill="#28c840"/>
            </g>
        
    <g transform="translate(9, 41)" clip-path="url(#terminal-clip-terminal)">
    <rect fill="#000000" x="0" y="1.5" width="1220" height="24.65" shape-rendering="crispEdges"/><rect fill="#000000" x="0" y="25.9" width="36.6" height="24.65" shape-rendering="crispEdges"/><rect fill="#000000" x="36.6" y="25.9" width="195.2" height="24.65" shape-rendering="crispEdges"/><rect fill="#000000" x="231.8" y="25.9" width="927.2" height="24.65" shape-rendering="crispEdges"/><rect fill="#000000" x="1159" y="25.9" width="61" height="24.65" shape-rendering="crispEdges"/><rect fill="#000000" x="0" y="50.3" width="36.6" height="24.65" shape-rendering="crispEdges"/><rect fill="#000000" x="36.6" y="50.3" width="305" height="24.65" shape-rendering="crispEdges"/><rect fill="#000000" x="341.6" y="50.3" width="817.4" height="24.65" shape-rendering="crispEdges"/><rect fill="#000000" x="1159" y="50.3" width="61" height="24.65" shape-rendering="crispEdges"/><rect fill="#000000" x="0" y="74.7" width="36.6" height="24.65" shape-rendering="crispEdges"/><rect fill="#000000" x="36.6" y="74.7" width="195.2" height="24.65" shape-rendering="crispEdges"/><rect fill="#000000" x="231.8" y="74.7" width="927.2" height="24.65" shape-rendering="crispEdges"/><rect fill="#000000" x="1159" y="74.7" width="61" height="24.65" shape-rendering="crispEdges"/><rect fill="#000000" x="0" y="99.1" width="36.6" height="24.65" shape-rendering="crispEdges"/><rect fill="#000000" x="36.6" y="99.1" width="524.6" height="24.65" shape-rendering="crispEdges"/><rect fill="#000000" x="561.2" y="99.1" width="597.8" height="24.65" shape-rendering="crispEdges"/><rect fill="#000000" x="1159" y="99.1" width="61" height="24.65" shape-rendering="crispEdges"/><rect fill="#000000" x="0" y="123.5" width="36.6" height="24.65" shape-rendering="crispEdges"/><rect fill="#000000" x="36.6" y="123.5" width="695.4" height="24.65" shape-rendering="crispEdges"/><rect fill="#000000" x="732" y="123.5" width="427" height="24.65" shape-rendering="crispEdges"/><rect fill="#000000" x="1159" y="123.5" width="61" height="24.65" shape-rendering="crispEdges"/><rect fill="#000000" x="0" y="147.9" width="36.6" height="24.65" shape-rendering="crispEdges"/><rect fill="#000000" x="36.6" y="147.9" width="256.2" height="24.65" shape-rendering="crispEdges"/><rect fill="#000000" x="292.8" y="147.9" width="866.2" height="24.65" shape-rendering="crispEdges"/><rect fill="#000000" x="1159" y="147.9" width="61" height="24.65" shape-rendering="crispEdges"/><rect fill="#000000" x="0" y="172.3" width="36.6" height="24.65" shape-rendering="crispEdges"/><rect fill="#000000" x="36.6" y="172.3" width="951.6" height="24.65" shape-rendering="crispEdges"/><rect fill="#000000" x="988.2" y="172.3" width="170.8" height="24.65" shape-rendering="crispEdges"/><rect fill="#000000" x="1159" y="172.3" width="61" height="24.65" shape-rendering="crispEdges"/><rect fill="#000000" x="0" y="196.7" width="36.6" height="24.65" shape-rendering="crispEdges"/><rect fill="#000000" x="36.6" y="196.7" width="12.2" height="24.65" shape-rendering="crispEdges"/><rect fill="#000000" x="48.8" y="196.7" width="927.2" height="24.65" shape-rendering="crispEdges"/><rect fill="#000000" x="976" y="196.7" width="12.2" height="24.65" shape-rendering="crispEdges"/><rect fill="#000000" x="988.2" y="196.7" width="170.8" height="24.65" shape-rendering="crispEdges"/><rect fill="#000000" x="1159" y="196.7" width="61" height="24.65" shape-rendering="crispEdges"/><rect fill="#000000" x="0" y="221.1" width="36.6" height="24.65" shape-rendering="crispEdges"/><rect fill="#000000" x="36.6" y="221.1" width="12.2" height="24.65" shape-rendering="crispEdges"/><rect fill="#000000" x="48.8" y="221.1" width="24.4" height="24.65" shape-rendering="crispEdges"/><rect fill="#000000" x="73.2" y="221.1" width="36.6" height="24.65" shape-rendering="crispEdges"/><rect fill="#000000" x="109.8" y="221.1" width="12.2" height="24.65" shape-rendering="crispEdges"/><rect fill="#000000" x="122" y="221.1" width="73.2" height="24.65" shape-rendering="crispEdges"/><rect fill="#000000" x="195.2" y="221.1" width="12.2" height="24.65" shape-rendering="crispEdges"/><rect fill="#000000" x="207.4" y="221.1" width="97.6" height="24.65" shape-rendering="crispEdges"/><rect fill="#000000" x="305" y="221.1" width="12.2" height="24.65" shape-rendering="crispEdges"/><rect fill="#000000" x="317.2" y="221.1" width="97.6" height="24.65" shape-rendering="crispEdges"/><rect fill="#000000" x="414.8" y="221.1" width="12.2" height="24.65" shape-rendering="crispEdges"/><rect fill="#000000" x="427" y="221.1" width="73.2" height="24.65" shape-rendering="crispEdges"/><rect fill="#000000" x="500.2" y="221.1" width="12.2" height="24.65" shape-rendering="crispEdges"/><rect fill="#000000" x="512.4" y="221.1" width="97.6" height="24.65" shape-rendering="crispEdges"/><rect fill="#000000" x="610" y="221.1" width="366" height="24.65" shape-rendering="crispEdges"/><rect fill="#000000" x="976" y="221.1" width="12.2" height="24.65" shape-rendering="crispEdges"/><rect fill="#000000" x="988.2" y="221.1" width="170.8" height="24.65" shape-rendering="crispEdges"/><rect fill="#000000" x="1159" y="221.1" width="61" height="24.65" shape-rendering="crispEdges"/><rect fill="#000000" x="0" y="245.5" width="36.6" height="24.65" shape-rendering="crispEdges"/><rect fill="#000000" x="36.6" y="245.5" width="12.2" height="24.65" shape-rendering="crispEdges"/><rect fill="#000000" x="48.8" y="245.5" width="927.2" height="24.65" shape-rendering="crispEdges"/><rect fill="#000000" x="976" y="245.5" width="12.2" height="24.65" shape-rendering="crispEdges"/><rect fill="#000000" x="988.2" y="245.5" width="170.8" height="24.65" shape-rendering="crispEdges"/><rect fill="#000000" x="1159" y="245.5" width="61" height="24.65" shape-rendering="crispEdges"/><rect fill="#000000" x="0" y="269.9" width="36.6" height="24.65" shape-rendering="crispEdges"/><rect fill="#000000" x="36.6" y="269.9" width="12.2" height="24.65" shape-rendering="crispEdges"/><rect fill="#000000" x="48.8" y="269.9" width="24.4" height="24.65" shape-rendering="crispEdges"/><rect fill="#000000" x="73.2" y="269.9" width="36.6" height="24.65" shape-rendering="crispEdges"/><rect fill="#000000" x="109.8" y="269.9" width="866.2" height="24.65" shape-rendering="crispEdges"/><rect fill="#000000" x="976" y="269.9" width="12.2" height="24.65" shape-rendering="crispEdges"/><rect fill="#000000" x="988.2" y="269.9" width="170.8" height="24.65" shape-rendering="crispEdges"/><rect fill="#000000" x="1159" y="269.9" width="61" height="24.65" shape-rendering="crispEdges"/><rect fill="#000000" x="0" y="294.3" width="36.6" height="24.65" shape-rendering="crispEdges"/><rect fill="#000000" x="36.6" y="294.3" width="12.2" height="24.65" shape-rendering="crispEdges"/><rect fill="#000000" x="48.8" y="294.3" width="927.2" height="24.65" shape-rendering="crispEdges"/><rect fill="#000000" x="976" y="294.3" width="12.2" height="24.65" shape-rendering="crispEdges"/><rect fill="#000000" x="988.2" y="294.3" width="170.8" height="24.65" shape-rendering="crispEdges"/><rect fill="#000000" x="1159" y="294.3" width="61" height="24.65" shape-rendering="crispEdges"/><rect fill="#000000" x="0" y="318.7" width="36.6" height="24.65" shape-rendering="crispEdges"/><rect fill="#000000" x="36.6" y="318.7" width="951.6" height="24.65" shape-rendering="crispEdges"/><rect fill="#000000" x="988.2" y="318.7" width="170.8" height="24.65" shape-rendering="crispEdges"/><rect fill="#000000" x="1159" y="318.7" width="61" height="24.65" shape-rendering="crispEdges"/><rect fill="#000000" x="0" y="343.1" width="36.6" height="24.65" shape-rendering="crispEdges"/><rect fill="#000000" x="36.6" y="343.1" width="512.4" height="24.65" shape-rendering="crispEdges"/><rect fill="#000000" x="549" y="343.1" width="610" height="24.65" shape-rendering="crispEdges"/><rect fill="#000000" x="1159" y="343.1" width="61" height="24.65" shape-rendering="crispEdges"/><rect fill="#000000" x="0" y="367.5" width="36.6" height="24.65" shape-rendering="crispEdges"/><rect fill="#000000" x="36.6" y="367.5" width="1122.4" height="24.65" shape-rendering="crispEdges"/><rect fill="#000000" x="1159" y="367.5" width="61" height="24.65" shape-rendering="crispEdges"/><rect fill="#000000" x="0" y="391.9" width="36.6" height="24.65" shape-rendering="crispEdges"/><rect fill="#000000" x="36.6" y="391.9" width="1122.4" height="24.65" shape-rendering="crispEdges"/><rect fill="#000000" x="1159" y="391.9" width="61" height="24.65" shape-rendering="crispEdges"/><rect fill="#000000" x="0" y="416.3" width="36.6" height="24.65" shape-rendering="crispEdges"/><rect fill="#000000" x="36.6" y="416.3" width="1122.4" height="24.65" shape-rendering="crispEdges"/><rect fill="#000000" x="1159" y="416.3" width="61" height="24.65" shape-rendering="crispEdges"/><rect fill="#000000" x="0" y="440.7" width="36.6" height="24.65" shape-rendering="crispEdges"/><rect fill="#000000" x="36.6" y="440.7" width="1122.4" height="24.65" shape-rendering="crispEdges"/><rect fill="#000000" x="1159" y="440.7" width="61" height="24.65" shape-rendering="crispEdges"/><rect fill="#000000" x="0" y="465.1" width="36.6" height="24.65" shape-rendering="crispEdges"/><rect fill="#000000" x="36.6" y="465.1" width="1122.4" height="24.65" shape-rendering="crispEdges"/><rect fill="#000000" x="1159" y="465.1" width="61" height="24.65" shape-rendering="crispEdges"/><rect fill="#000000" x="0" y="489.5" width="36.6" height="24.65" shape-rendering="crispEdges"/><rect fill="#000000" x="36.6" y="489.5" width="1122.4" height="24.65" shape-rendering="crispEdges"/><rect fill="#000000" x="1159" y="489.5" width="61" height="24.65" shape-rendering="crispEdges"/><rect fill="#000000" x="0" y="513.9" width="24.4" height="24.65" shape-rendering="crispEdges"/><rect fill="#1e1e1e" x="24.4" y="513.9" width="1171.2" height="24.65" shape-rendering="crispEdges"/><rect fill="#000000" x="1195.6" y="513.9" width="24.4" height="24.65" shape-rendering="crispEdges"/><rect fill="#000000" x="0" y="538.3" width="24.4" height="24.65" shape-rendering="crispEdges"/><rect fill="#1e1e1e" x="24.4" y="538.3" width="12.2" height="24.65" shape-rendering="crispEdges"/><rect fill="#1e1e1e" x="36.6" y="538.3" width="12.2" height="24.65" shape-rendering="crispEdges"/><rect fill="#1e1e1e" x="48.8" y="538.3" width="12.2" height="24.65" shape-rendering="crispEdges"/><rect fill="#1e1e1e" x="61" y="538.3" width="61" height="24.65" shape-rendering="crispEdges"/><rect fill="#1e1e1e" x="122" y="538.3" width="48.8" height="24.65" shape-rendering="crispEdges"/><rect fill="#1e1e1e" x="170.8" y="538.3" width="244" height="24.65" shape-rendering="crispEdges"/><rect fill="#1e1e1e" x="414.8" y="538.3" width="756.4" height="24.65" shape-rendering="crispEdges"/><rect fill="#1e1e1e" x="1171.2" y="538.3" width="12.2" height="24.65" shape-rendering="crispEdges"/><rect fill="#1e1e1e" x="1183.4" y="538.3" width="12.2" height="24.65" shape-rendering="crispEdges"/><rect fill="#000000" x="1195.6" y="538.3" width="24.4" height="24.65" shape-rendering="crispEdges"/><rect fill="#000000" x="0" y="562.7" width="24.4" height="24.65" shape-rendering="crispEdges"/><rect fill="#1e1e1e" x="24.4" y="562.7" width="1171.2" height="24.65" shape-rendering="crispEdges"/><rect fill="#000000" x="1195.6" y="562.7" width="24.4" height="24.65" shape-rendering="crispEdges"/><rect fill="#000000" x="0" y="587.1" width="36.6" height="24.65" shape-rendering="crispEdges"/><rect fill="#000000" x="36.6" y="587.1" width="475.8" height="24.65" shape-rendering="crispEdges"/><rect fill="#000000" x="512.4" y="587.1" width="707.6" height="24.65" shape-rendering="crispEdges"/><rect fill="#000000" x="0" y="611.5" width="24.4" height="24.65" shape-rendering="crispEdges"/><rect fill="#1e1e1e" x="24.4" y="611.5" width="1171.2" height="24.65" shape-rendering="crispEdges"/><rect fill="#000000" x="1195.6" y="611.5" width="24.4" height="24.65" shape-rendering="crispEdges"/><rect fill="#000000" x="0" y="635.9" width="24.4" height="24.65" shape-rendering="crispEdges"/><rect fill="#1e1e1e" x="24.4" y="635.9" width="12.2" height="24.65" shape-rendering="crispEdges"/><rect fill="#1e1e1e" x="36.6" y="635.9" width="12.2" height="24.65" shape-rendering="crispEdges"/><rect fill="#1e1e1e" x="48.8" y="635.9" width="353.8" height="24.65" shape-rendering="crispEdges"/><rect fill="#1e1e1e" x="402.6" y="635.9" width="12.2" height="24.65" shape-rendering="crispEdges"/><rect fill="#272727" x="414.8" y="635.9" width="12.2" height="24.65" shape-rendering="crispEdges"/><rect fill="#e0e0e0" x="427" y="635.9" width="24.4" height="24.65" shape-rendering="crispEdges"/><rect fill="#272727" x="451.4" y="635.9" width="292.8" height="24.65" shape-rendering="crispEdges"/><rect fill="#272727" x="744.2" y="635.9" width="427" height="24.65" shape-rendering="crispEdges"/><rect fill="#272727" x="1171.2" y="635.9" width="12.2" height="24.65" shape-rendering="crispEdges"/><rect fill="#1e1e1e" x="1183.4" y="635.9" width="12.2" height="24.65" shape-rendering="crispEdges"/><rect fill="#000000" x="1195.6" y="635.9" width="24.4" height="24.65" shape-rendering="crispEdges"/><rect fill="#000000" x="0" y="660.3" width="24.4" height="24.65" shape-rendering="crispEdges"/><rect fill="#1e1e1e" x="24.4" y="660.3" width="1171.2" height="24.65" shape-rendering="crispEdges"/><rect fill="#000000" x="1195.6" y="660.3" width="24.4" height="24.65" shape-rendering="crispEdges"/><rect fill="#000000" x="0" y="684.7" width="36.6" height="24.65" shape-rendering="crispEdges"/><rect fill="#000000" x="36.6" y="684.7" width="646.6" height="24.65" shape-rendering="crispEdges"/><rect fill="#000000" x="683.2" y="684.7" width="536.8" height="24.65" shape-rendering="crispEdges"/><rect fill="#000000" x="0" y="709.1" width="36.6" height="24.65" shape-rendering="crispEdges"/><rect fill="#000000" x="36.6" y="709.1" width="1146.8" height="24.65" shape-rendering="crispEdges"/><rect fill="#000000" x="1183.4" y="709.1" width="36.6" height="24.65" shape-rendering="crispEdges"/>
    <g class="terminal-matrix">
    <text class="terminal-r1" x="1220" y="20" textLength="12.2" clip-path="url(#terminal-line-0)">
</text><text class="terminal-r2" x="36.6" y="44.4" textLength="195.2" clip-path="url(#terminal-line-1)">Kairos&#160;Workbench</text><text class="terminal-r1" x="1220" y="44.4" textLength="12.2" clip-path="url(#terminal-line-1)">
</text><text class="terminal-r4" x="36.6" y="68.8" textLength="305" clip-path="url(#terminal-line-2)">Workspace:&#160;visual-fixture</text><text class="terminal-r1" x="1220" y="68.8" textLength="12.2" clip-path="url(#terminal-line-2)">
</text><text class="terminal-r5" x="36.6" y="93.2" textLength="97.6" clip-path="url(#terminal-line-3)">交易，从这里开始</text><text class="terminal-r1" x="1220" y="93.2" textLength="12.2" clip-path="url(#terminal-line-3)">
</text><text class="terminal-r4" x="36.6" y="117.6" textLength="292.8" clip-path="url(#terminal-line-4)">输入&#160;1–6&#160;选择；每一步都继续使用下方输入框。</text><text class="terminal-r1" x="1220" y="117.6" textLength="12.2" clip-path="url(#terminal-line-4)">
</text><text class="terminal-r4" x="36.6" y="142" textLength="512.4" clip-path="url(#terminal-line-5)">输入&#160;/xxx&#160;控制&#160;Workbench；其他文本按&#160;kairos&#160;&lt;输入&gt;&#160;执行。</text><text class="terminal-r1" x="1220" y="142" textLength="12.2" clip-path="url(#terminal-line-5)">
</text><text class="terminal-r6" x="36.6" y="166.4" textLength="256.2" clip-path="url(#terminal-line-6)">kairos&#160;›&#160;/market&#160;AAPL</text><text class="terminal-r1" x="1220" y="166.4" textLength="12.2" clip-path="url(#terminal-line-6)">
</text><text class="terminal-r7" x="36.6" y="190.8" textLength="890.6" clip-path="url(#terminal-line-7)">╭──────────────────────────────&#160;找到&#160;1&#160;个标的&#160;───────────────────────────────╮</text><text class="terminal-r1" x="1220" y="190.8" textLength="12.2" clip-path="url(#terminal-line-7)">
</text><text class="terminal-r7" x="36.6" y="215.2" textLength="12.2" clip-path="url(#terminal-line-8)">│</text><text class="terminal-r3" x="48.8" y="215.2" textLength="927.2" clip-path="url(#terminal-line-8)">&#160;┏━━━┳━━━━━━┳━━━━━━━━┳━━━━━━━━┳━━━━━━┳━━━━━━━━┓&#160;&#160;&#160;&#160;&#160;&#160;&#160;&#160;&#160;&#160;&#160;&#160;&#160;&#160;&#160;&#160;&#160;&#160;&#160;&#160;&#160;&#160;&#160;&#160;&#160;&#160;&#160;&#160;&#160;</text><text class="terminal-r7" x="976" y="215.2" textLength="12.2" clip-path="url(#terminal-line-8)">│</text><text class="terminal-r1" x="1220" y="215.2" textLength="12.2" clip-path="url(#terminal-line-8)">
</text><text class="terminal-r7" x="36.6" y="239.6" textLength="12.2" clip-path="url(#terminal-line-9)">│</text><text class="terminal-r3" x="48.8" y="239.6" textLength="24.4" clip-path="url(#terminal-line-9)">&#160;┃</text><text class="terminal-r5" x="73.2" y="239.6" textLength="36.6" clip-path="url(#terminal-line-9)">&#160;#&#160;</text><text class="terminal-r3" x="109.8" y="239.6" textLength="12.2" clip-path="url(#terminal-line-9)">┃</text><text class="terminal-r5" x="122" y="239.6" textLength="48.8" clip-path="url(#terminal-line-9)">&#160;代码&#160;</text><text class="terminal-r3" x="195.2" y="239.6" textLength="12.2" clip-path="url(#terminal-line-9)">┃</text><text class="terminal-r5" x="207.4" y="239.6" textLength="61" clip-path="url(#terminal-line-9)">&#160;交易所&#160;</text><text class="terminal-r3" x="305" y="239.6" textLength="12.2" clip-path="url(#terminal-line-9)">┃</text><text class="terminal-r5" x="317.2" y="239.6" textLength="73.2" clip-path="url(#terminal-line-9)">&#160;类型&#160;&#160;&#160;</text><text class="terminal-r3" x="414.8" y="239.6" textLength="12.2" clip-path="url(#terminal-line-9)">┃</text><text class="terminal-r5" x="427" y="239.6" textLength="48.8" clip-path="url(#terminal-line-9)">&#160;计价&#160;</text><text class="terminal-r3" x="500.2" y="239.6" textLength="12.2" clip-path="url(#terminal-line-9)">┃</text><text class="terminal-r5" x="512.4" y="239.6" textLength="73.2" clip-path="url(#terminal-line-9)">&#160;状态&#160;&#160;&#160;</text><text class="terminal-r3" x="610" y="239.6" textLength="366" clip-path="url(#terminal-line-9)">┃&#160;&#160;&#160;&#160;&#160;&#160;&#160;&#160;&#160;&#160;&#160;&#160;&#160;&#160;&#160;&#160;&#160;&#160;&#160;&#160;&#160;&#160;&#160;&#160;&#160;&#160;&#160;&#160;&#160;</text><text class="terminal-r7" x="976" y="239.6" textLength="12.2" clip-path="url(#terminal-line-9)">│</text><text class="terminal-r1" x="1220" y="239.6" textLength="12.2" clip-path="url(#terminal-line-9)">
</text><text class="terminal-r7" x="36.6" y="264" textLength="12.2" clip-path="url(#terminal-line-10)">│</text><text class="terminal-r3" x="48.8" y="264" textLength="927.2" clip-path="url(#terminal-line-10)">&#160;┡━━━╇━━━━━━╇━━━━━━━━╇━━━━━━━━╇━━━━━━╇━━━━━━━━┩&#160;&#160;&#160;&#160;&#160;&#160;&#160;&#160;&#160;&#160;&#160;&#160;&#160;&#160;&#160;&#160;&#160;&#160;&#160;&#160;&#160;&#160;&#160;&#160;&#160;&#160;&#160;&#160;&#160;</text><text class="terminal-r7" x="976" y="264" textLength="12.2" clip-path="url(#terminal-line-10)">│</text><text class="terminal-r1" x="1220" y="264" textLength="12.2" clip-path="url(#terminal-line-10)">
</text><text class="terminal-r7" x="36.6" y="288.4" textLength="12.2" clip-path="url(#terminal-line-11)">│</text><text class="terminal-r3" x="48.8" y="288.4" textLength="24.4" clip-path="url(#terminal-line-11)">&#160;│</text><text class="terminal-r2" x="73.2" y="288.4" textLength="36.6" clip-path="url(#terminal-line-11)">&#160;1&#160;</text><text class="terminal-r3" x="109.8" y="288.4" textLength="866.2" clip-path="url(#terminal-line-11)">│&#160;AAPL&#160;│&#160;nasdaq&#160;│&#160;equity&#160;│&#160;USD&#160;&#160;│&#160;active&#160;│&#160;&#160;&#160;&#160;&#160;&#160;&#160;&#160;&#160;&#160;&#160;&#160;&#160;&#160;&#160;&#160;&#160;&#160;&#160;&#160;&#160;&#160;&#160;&#160;&#160;&#160;&#160;&#160;&#160;</text><text class="terminal-r7" x="976" y="288.4" textLength="12.2" clip-path="url(#terminal-line-11)">│</text><text class="terminal-r1" x="1220" y="288.4" textLength="12.2" clip-path="url(#terminal-line-11)">
</text><text class="terminal-r7" x="36.6" y="312.8" textLength="12.2" clip-path="url(#terminal-line-12)">│</text><text class="terminal-r3" x="48.8" y="312.8" textLength="927.2" clip-path="url(#terminal-line-12)">&#160;└───┴──────┴────────┴────────┴──────┴────────┘&#160;&#160;&#160;&#160;&#160;&#160;&#160;&#160;&#160;&#160;&#160;&#160;&#160;&#160;&#160;&#160;&#160;&#160;&#160;&#160;&#160;&#160;&#160;&#160;&#160;&#160;&#160;&#160;&#160;</text><text class="terminal-r7" x="976" y="312.8" textLength="12.2" clip-path="url(#terminal-line-12)">│</text><text class="terminal-r1" x="1220" y="312.8" textLength="12.2" clip-path="url(#terminal-line-12)">
</text><text class="terminal-r7" x="36.6" y="337.2" textLength="951.6" clip-path="url(#terminal-line-13)">╰────────────────────────────────────────────────────────────────────────────╯</text><text class="terminal-r1" x="1220" y="337.2" textLength="12.2" clip-path="url(#terminal-line-13)">
</text><text class="terminal-r4" x="36.6" y="361.6" textLength="292.8" clip-path="url(#terminal-line-14)">输入结果编号查看详情；/back&#160;返回当前菜单。</text><text class="terminal-r1" x="1220" y="361.6" textLength="12.2" clip-path="url(#terminal-line-14)">
</text><text class="terminal-r1" x="1220" y="386" textLength="12.2" clip-path="url(#terminal-line-15)">
</text><text class="terminal-r1" x="1220" y="410.4" textLength="12.2" clip-path="url(#terminal-line-16)">
</text><text class="terminal-r1" x="1220" y="434.8" textLength="12.2" clip-path="url(#terminal-line-17)">
</text><text class="terminal-r1" x="1220" y="459.2" textLength="12.2" clip-path="url(#terminal-line-18)">
</text><text class="terminal-r1" x="1220" y="483.6" textLength="12.2" clip-path="url(#terminal-line-19)">
</text><text class="terminal-r1" x="1220" y="508" textLength="12.2" clip-path="url(#terminal-line-20)">
</text><text class="terminal-r8" x="24.4" y="532.4" textLength="1171.2" clip-path="url(#terminal-line-21)">╭──────────────────────────────────────────────────────────────────────────────────────────────╮</text><text class="terminal-r1" x="1220" y="532.4" textLength="12.2" clip-path="url(#terminal-line-21)">
</text><text class="terminal-r8" x="24.4" y="556.8" textLength="12.2" clip-path="url(#terminal-line-22)">│</text><text class="terminal-r2" x="61" y="556.8" textLength="61" clip-path="url(#terminal-line-22)">[1]&#160;&#160;</text><text class="terminal-r5" x="122" y="556.8" textLength="48.8" clip-path="url(#terminal-line-22)">AAPL</text><text class="terminal-r9" x="170.8" y="556.8" textLength="244" clip-path="url(#terminal-line-22)">&#160;&#160;·&#160;&#160;equity&#160;·&#160;active</text><text class="terminal-r8" x="1183.4" y="556.8" textLength="12.2" clip-path="url(#terminal-line-22)">│</text><text class="terminal-r1" x="1220" y="556.8" textLength="12.2" clip-path="url(#terminal-line-22)">
</text><text class="terminal-r8" x="24.4" y="581.2" textLength="1171.2" clip-path="url(#terminal-line-23)">╰──────────────────────────────────────────────────────────────────────────────────────────────╯</text><text class="terminal-r1" x="1220" y="581.2" textLength="12.2" clip-path="url(#terminal-line-23)">
</text><text class="terminal-r10" x="36.6" y="605.6" textLength="292.8" clip-path="url(#terminal-line-24)">首页&#160;/&#160;市场行情&#160;/&#160;查询结果&#160;·&#160;请选择结果</text><text class="terminal-r1" x="1220" y="605.6" textLength="12.2" clip-path="url(#terminal-line-24)">
</text><text class="terminal-r11" x="24.4" y="630" textLength="1171.2" clip-path="url(#terminal-line-25)">╭──────────────────────────────────────────────────────────────────────────────────────────────╮</text><text class="terminal-r1" x="1220" y="630" textLength="12.2" clip-path="url(#terminal-line-25)">
</text><text class="terminal-r11" x="24.4" y="654.4" textLength="12.2" clip-path="url(#terminal-line-26)">│</text><text class="terminal-r12" x="48.8" y="654.4" textLength="231.8" clip-path="url(#terminal-line-26)">首页&#160;/&#160;市场行情&#160;/&#160;查询结果&#160;&#160;›</text><text class="terminal-r13" x="427" y="654.4" textLength="12.2" clip-path="url(#terminal-line-26)">输</text><text class="terminal-r14" x="451.4" y="654.4" textLength="183" clip-path="url(#terminal-line-26)">入编号或命令；Enter&#160;提交</text><text class="terminal-r11" x="1183.4" y="654.4" textLength="12.2" clip-path="url(#terminal-line-26)">│</text><text class="terminal-r1" x="1220" y="654.4" textLength="12.2" clip-path="url(#terminal-line-26)">
</text><text class="terminal-r11" x="24.4" y="678.8" textLength="1171.2" clip-path="url(#terminal-line-27)">╰──────────────────────────────────────────────────────────────────────────────────────────────╯</text><text class="terminal-r1" x="1220" y="678.8" textLength="12.2" clip-path="url(#terminal-line-27)">
</text><text class="terminal-r10" x="36.6" y="703.2" textLength="524.6" clip-path="url(#terminal-line-28)">数字选择&#160;&#160;·&#160;&#160;/back&#160;返回&#160;&#160;·&#160;&#160;/help&#160;帮助&#160;&#160;·&#160;&#160;/exit&#160;退出</text><text class="terminal-r1" x="1220" y="703.2" textLength="12.2" clip-path="url(#terminal-line-28)">
</text>
    </g>
    </g>
</svg>
